<svg  xmlns="http://www.w3.org/2000/svg" width="395.99999999999994" height="113.5530623642135" viewBox="0 0 369.91304347826093 106.07262347329038" class="looka-1j8o68f"><defs id="SvgjsDefs1424"></defs><g id="SvgjsG1425" featurekey="HdFLvg-0" transform="matrix(1.0607262347329038,0,0,1.0607262347329038,-14.993359501206363,0)" fill="#48466d"><g xmlns="http://www.w3.org/2000/svg"><path d="M79.869,76.395c-1.978-0.995-4.218-2.125-4.689-4.603c-0.396-2.087,0.062-4.982,0.504-7.783   c0.465-2.939,0.958-6.091,0.46-8.629c6.022-5.888,9.722-13.795,9.722-22.486C85.865,14.756,69.777,0,50.002,0   C30.225,0,14.135,14.756,14.135,32.894c0,10.195,5.084,19.323,13.049,25.361c-0.053,2.145,0.422,4.605,0.895,7.031   c0.682,3.496,1.386,7.111,0.448,9.413c-0.825,2.027-2.062,2.931-4.009,2.931l0,0c-1.31,0-2.706-0.404-3.939-0.761   c-1.011-0.291-1.884-0.543-2.612-0.543c-1.015,0-1.748,0.531-1.96,1.425c-0.155,0.656-0.146,1.683,0.778,2.853   c1.715,2.167,5.846,3.803,9.607,3.802c5.034,0,8.463-2.687,9.408-7.373c0.379-1.88,0.972-3.663,1.625-5.343   c0.192,1.656,0.436,3.256,0.657,4.703c0.076,0.505,0.15,0.992,0.22,1.457c0.74,5.02-1.639,7.879-3.375,9.967   c-1.145,1.378-2.57,3.091-0.99,4.596c0.784,0.744,1.781,1.138,2.883,1.138c1.653,0,3.401-0.878,4.922-2.471   c2.964-3.107,4.508-8.213,4.235-14.007c-0.188-3.997,1.644-6.672,3.426-8.989c0.836,2.138,1.56,4.566,1.02,7.613   c-2.252,12.719-2.22,20.246,0.099,23.013C51.229,99.554,52.17,100,53.243,100h0.001c0.117,0,0.237-0.005,0.359-0.016   c0.877-0.077,1.637-0.473,2.196-1.143c1.847-2.21,1.397-7.164,0.876-12.901c-0.395-4.327-0.801-8.805-0.094-11.663   c0.542-2.195,1.327-3.868,2.177-5.229c0.433,1.582,0.676,3.443,0.292,5.901c-0.743,4.784,0.483,9.591,3.284,12.86   c1.707,1.994,3.77,3.137,5.66,3.138h0.001c0.823,0,1.576-0.216,2.236-0.638c0.638-0.409,0.852-0.935,0.918-1.304   c0.198-1.09-0.547-2.084-1.576-3.459c-1.565-2.092-3.708-4.957-3.093-8.962c0.235-1.53,0.726-3.305,1.243-5.182   c0.148-0.541,0.302-1.095,0.451-1.658c0.107,0.608,0.2,1.247,0.26,1.958c0.657,7.799,5.747,10.565,9.905,10.565h0.001   c2.286,0,4.044-0.845,4.48-2.154C83.458,78.203,81.551,77.242,79.869,76.395z M49.998,58.724c-9.952,0-16.757-0.582-16.757-7.186   c0-6.608,6.805-7.199,16.757-7.199c9.955,0,16.758,0.591,16.758,7.199C66.756,58.142,59.953,58.724,49.998,58.724z M57.231,48.487   c-1.157,0-2.091,1.328-2.091,2.967c0,1.64,0.934,2.967,2.091,2.967c1.15,0,2.087-1.327,2.087-2.967   C59.318,49.815,58.382,48.487,57.231,48.487z M42.768,48.487c-1.149,0-2.088,1.328-2.088,2.967c0,1.64,0.938,2.967,2.088,2.967   c1.158,0,2.092-1.327,2.092-2.967C44.859,49.815,43.926,48.487,42.768,48.487z"></path></g></g><g id="SvgjsG1426" featurekey="VomJeJ-0" transform="matrix(3.6668410534510665,0,0,3.6668410534510665,95.11995833076278,-1.3609215315555012)" fill="#48466d"><path d="M4.92 12.32 l0 7.1 q0 1.16 -0.16 2 t-0.59 1.43 t-1.18 0.96 t-1.91 0.59 q-0.34 -0.26 -0.58 -0.81 t-0.26 -1.09 q0.46 -0.2 0.77 -0.41 t0.49 -0.49 t0.26 -0.65 t0.08 -0.89 l0 -6.68 q0 -1.16 -0.94 -1.16 l-0.48 0 q-0.08 -0.24 -0.11 -0.52 t-0.03 -0.56 q0 -0.62 0.14 -1.1 q0.58 -0.04 1.06 -0.07 t0.86 -0.03 l0.44 0 q0.98 0 1.56 0.64 t0.58 1.74 z M1.36 6 q0.58 -0.32 1.5 -0.32 q0.94 0 1.46 0.32 q0.24 0.54 0.24 1.16 t-0.24 1.16 q-0.58 0.3 -1.52 0.3 t-1.44 -0.3 q-0.24 -0.54 -0.24 -1.16 t0.24 -1.16 z M15.06 16.02 l-5.22 0 q0.04 0.9 0.46 1.4 t1.38 0.5 q0.48 0 1.11 -0.14 t1.45 -0.46 q0.66 0.68 0.82 1.84 q-1.6 1.14 -3.92 1.14 q-1.26 0 -2.11 -0.4 t-1.38 -1.12 t-0.75 -1.7 t-0.22 -2.14 q0 -1.12 0.27 -2.07 t0.82 -1.65 t1.4 -1.1 t1.99 -0.4 q0.96 0 1.73 0.32 t1.31 0.88 t0.83 1.34 t0.29 1.7 q0 1.22 -0.26 2.06 z M9.82 13.86 l2.64 0 l0 -0.22 q0 -0.74 -0.33 -1.22 t-0.99 -0.48 q-0.64 0 -0.95 0.45 t-0.37 1.47 z M21.119999999999997 17.72 l0.54 0 q0.24 0.66 0.24 1.32 t-0.06 0.86 q-1.2 0.2 -2.14 0.2 q-1.36 0 -1.93 -0.67 t-0.57 -2.11 l0 -11.9 l0.12 -0.14 l1.22 0 q0.94 0 1.32 0.42 t0.38 1.46 l0 9.62 q0 0.94 0.88 0.94 z M27.18 17.72 l0.54 0 q0.24 0.66 0.24 1.32 t-0.06 0.86 q-1.2 0.2 -2.14 0.2 q-1.36 0 -1.93 -0.67 t-0.57 -2.11 l0 -11.9 l0.12 -0.14 l1.22 0 q0.94 0 1.32 0.42 t0.38 1.46 l0 9.62 q0 0.94 0.88 0.94 z M37.940000000000005 10.34 l-2.46 9.4 q-0.58 2.16 -1.54 3.32 q-1.1 1.32 -3.38 1.32 q-1.22 0 -2.42 -0.4 q-0.06 -0.54 0.12 -1.21 t0.5 -1.03 q0.9 0.3 1.8 0.3 q1.48 0 1.96 -1.62 l0.08 -0.28 q-1.74 0 -2.08 -1.26 l-2.32 -8.62 q0.92 -0.42 1.72 -0.42 t1.17 0.3 t0.55 1.04 l0.92 3.84 q0.14 0.54 0.46 2.64 q0.02 0.14 0.16 0.14 l1.74 -7.76 q0.48 -0.14 1.3 -0.14 q0.92 0 1.6 0.22 z M46.2 10.9 q1.44 1.44 1.44 4.12 q0 1.2 -0.31 2.18 t-0.9 1.67 t-1.45 1.06 t-1.98 0.37 t-1.97 -0.38 t-1.44 -1.07 t-0.89 -1.67 t-0.3 -2.16 q0 -1.2 0.3 -2.17 t0.88 -1.67 t1.44 -1.08 t1.98 -0.38 q1.98 0 3.2 1.18 z M43.02 12.059999999999999 q-0.44 0 -0.71 0.21 t-0.43 0.57 t-0.22 0.83 t-0.06 1.01 q0 0.84 0.05 1.45 t0.2 1.02 t0.42 0.61 t0.71 0.2 q0.88 0 1.16 -0.77 t0.28 -2.19 q0 -1.44 -0.28 -2.19 t-1.12 -0.75 z M54.42 14.440000000000001 l0 -0.26 q0 -1.12 -0.24 -1.63 t-0.9 -0.51 q-0.7 0 -0.98 0.69 t-0.28 2.29 q0 0.8 0.11 1.34 t0.32 0.87 t0.53 0.48 t0.76 0.15 q0.46 0 1.02 -0.2 t1.2 -0.64 q0.18 0.1 0.37 0.29 t0.35 0.43 t0.28 0.51 t0.18 0.51 q-0.66 0.7 -1.72 1.12 t-2.16 0.42 q-2.14 0 -3.28 -1.4 t-1.14 -3.98 q0 -1.32 0.37 -2.3 t0.98 -1.62 t1.4 -0.96 t1.65 -0.32 q0.88 0 1.61 0.24 t1.26 0.68 t0.82 1.05 t0.29 1.35 q0 0.84 -0.49 1.18 t-1.21 0.34 q-0.6 0 -1.1 -0.12 z M64.78 10 q0.12 0.56 0.12 1.12 t-0.12 1.1 l-2.38 -0.04 l0 4.6 q0 0.94 0.88 0.94 l1.12 0 q0.26 0.72 0.26 1.32 t-0.08 0.86 q-1.48 0.2 -2.72 0.2 q-2.52 0 -2.52 -2.78 l0 -5.12 l-1.56 0.02 q-0.14 -0.5 -0.14 -1.09 t0.14 -1.13 l1.56 0.04 l0 -1.16 q0 -1.02 0.39 -1.45 t1.31 -0.43 l1.22 0 l0.14 0.14 l0 2.9 z M73.50000000000001 10.9 q1.44 1.44 1.44 4.12 q0 1.2 -0.31 2.18 t-0.9 1.67 t-1.45 1.06 t-1.98 0.37 t-1.97 -0.38 t-1.44 -1.07 t-0.89 -1.67 t-0.3 -2.16 q0 -1.2 0.3 -2.17 t0.88 -1.67 t1.44 -1.08 t1.98 -0.38 q1.98 0 3.2 1.18 z M70.32000000000001 12.059999999999999 q-0.44 0 -0.71 0.21 t-0.43 0.57 t-0.22 0.83 t-0.06 1.01 q0 0.84 0.05 1.45 t0.2 1.02 t0.42 0.61 t0.71 0.2 q0.88 0 1.16 -0.77 t0.28 -2.19 q0 -1.44 -0.28 -2.19 t-1.12 -0.75 z"></path></g></svg>